<?xml version="1.0" encoding="utf-8"?>
<!-- Generator: Adobe Illustrator 27.5.0, SVG Export Plug-In . SVG Version: 6.00 Build 0)  -->
<svg version="1.1" xmlns="http://www.w3.org/2000/svg" xmlns:xlink="http://www.w3.org/1999/xlink" x="0px" y="0px"
	 viewBox="0 0 500 500" style="enable-background:new 0 0 500 500;" xml:space="preserve">
<g id="Background_Complete">
	<g>
		<path style="fill:#E0E0E0;" d="M124.678,253.386c-0.123-0.075,1.511-2.99,3.649-6.51c2.139-3.521,3.972-6.314,4.094-6.24
			c0.123,0.075-1.511,2.989-3.649,6.51C126.634,250.667,124.801,253.46,124.678,253.386z"/>
	</g>
	<g>
		<path style="fill:#E0E0E0;" d="M121.442,188.08c-0.123-0.075,1.511-2.99,3.649-6.51c2.139-3.521,3.971-6.314,4.094-6.24
			c0.123,0.075-1.511,2.989-3.649,6.51C123.398,185.361,121.565,188.155,121.442,188.08z"/>
	</g>
	<g>
		<path style="fill:#E0E0E0;" d="M128.101,344.263c-0.123-0.075,1.511-2.99,3.649-6.51c2.139-3.521,3.971-6.314,4.094-6.24
			c0.123,0.075-1.511,2.989-3.649,6.51C130.057,341.543,128.224,344.337,128.101,344.263z"/>
	</g>
	<g>
		<path style="fill:#E0E0E0;" d="M247.206,443.321c-0.123-0.075,1.511-2.989,3.649-6.509c2.139-3.521,3.971-6.314,4.094-6.24
			c0.123,0.075-1.511,2.989-3.649,6.51C249.162,440.602,247.329,443.396,247.206,443.321z"/>
	</g>
	<g>
		<path style="fill:#E0E0E0;" d="M61.567,361.039c-0.123-0.075,1.511-2.989,3.649-6.509c2.139-3.521,3.971-6.314,4.094-6.24
			c0.123,0.075-1.511,2.989-3.649,6.51C63.523,358.32,61.69,361.114,61.567,361.039z"/>
	</g>
	<g>
		<path style="fill:#E0E0E0;" d="M340.576,315.79c-0.123-0.075,1.511-2.989,3.649-6.51c2.139-3.521,3.972-6.314,4.094-6.24
			c0.123,0.075-1.511,2.989-3.649,6.51C342.532,313.071,340.699,315.865,340.576,315.79z"/>
	</g>
	<g>
		<path style="fill:#E0E0E0;" d="M263.031,411.908c-0.123-0.075,1.511-2.989,3.649-6.509c2.139-3.521,3.971-6.314,4.094-6.24
			c0.123,0.075-1.511,2.989-3.649,6.51C264.987,409.189,263.154,411.983,263.031,411.908z"/>
	</g>
	<g>
		<path style="fill:#E0E0E0;" d="M299.474,448.538c-0.123-0.075,1.511-2.989,3.649-6.509c2.139-3.521,3.971-6.314,4.094-6.24
			c0.123,0.075-1.511,2.989-3.649,6.51C301.43,445.819,299.597,448.613,299.474,448.538z"/>
	</g>
	<g>
		<path style="fill:#E0E0E0;" d="M386.074,299.53c-0.123-0.075,1.511-2.99,3.649-6.509c2.139-3.521,3.971-6.315,4.094-6.24
			c0.123,0.075-1.511,2.989-3.649,6.51C388.03,296.811,386.197,299.605,386.074,299.53z"/>
	</g>
	<g>
		<path style="fill:#E0E0E0;" d="M397.275,238.639c-0.123-0.075,1.511-2.989,3.649-6.509c2.139-3.521,3.971-6.314,4.094-6.24
			c0.123,0.075-1.511,2.989-3.649,6.51C399.231,235.92,397.398,238.714,397.275,238.639z"/>
	</g>
	<g>
		<path style="fill:#E0E0E0;" d="M366.983,152.274c-0.123-0.075,1.511-2.989,3.649-6.51c2.139-3.521,3.971-6.314,4.094-6.24
			c0.123,0.075-1.511,2.989-3.649,6.51C368.939,149.555,367.105,152.349,366.983,152.274z"/>
	</g>
	<g>
		<path style="fill:#E0E0E0;" d="M320.089,264.623c-0.123-0.075,1.511-2.989,3.649-6.51c2.139-3.521,3.971-6.314,4.094-6.24
			c0.123,0.075-1.511,2.989-3.649,6.51C322.045,261.904,320.212,264.698,320.089,264.623z"/>
	</g>
	<g>
		<path style="fill:#E0E0E0;" d="M364.01,226.497c-0.123-0.075,1.511-2.99,3.649-6.51c2.139-3.521,3.971-6.314,4.094-6.24
			c0.123,0.075-1.511,2.989-3.649,6.51C365.966,223.778,364.133,226.572,364.01,226.497z"/>
	</g>
	<g>
		<path style="fill:#E0E0E0;" d="M176.151,264.623c-0.123-0.075,1.511-2.989,3.649-6.51c2.139-3.521,3.971-6.314,4.094-6.24
			c0.123,0.075-1.511,2.989-3.649,6.51C178.107,261.904,176.274,264.698,176.151,264.623z"/>
	</g>
	<g>
		<path style="fill:#E0E0E0;" d="M89.535,441.106c-0.123-0.075,1.511-2.989,3.649-6.509c2.139-3.521,3.971-6.314,4.094-6.24
			c0.123,0.075-1.511,2.989-3.649,6.51C91.491,438.387,89.658,441.18,89.535,441.106z"/>
	</g>
	<g>
		<path style="fill:#E0E0E0;" d="M178.717,171.673c-0.123-0.075,1.511-2.989,3.649-6.51c2.139-3.521,3.971-6.314,4.094-6.24
			c0.123,0.075-1.511,2.989-3.649,6.51C180.673,168.954,178.84,171.747,178.717,171.673z"/>
	</g>
	<g>
		<path style="fill:#E0E0E0;" d="M69.31,295.825c-0.123-0.075,1.511-2.99,3.649-6.509c2.139-3.521,3.971-6.314,4.094-6.24
			c0.123,0.075-1.511,2.989-3.649,6.51C71.266,293.106,69.433,295.899,69.31,295.825z"/>
	</g>
	<g>
		<path style="fill:#E0E0E0;" d="M124.678,301.274c-0.123-0.075,1.511-2.99,3.649-6.509c2.139-3.521,3.972-6.315,4.094-6.24
			c0.123,0.075-1.511,2.989-3.649,6.51C126.634,298.555,124.801,301.348,124.678,301.274z"/>
	</g>
	<path style="fill:#EBEBEB;" d="M414.569,78.525c-1.28-3.617-4.931-6.261-8.767-6.35c0.836-4.101-0.873-8.614-4.217-11.132
		s-8.153-2.915-11.864-0.979c-2.397-6.155-8.65-10.606-15.25-10.857c-6.6-0.25-13.173,3.715-16.028,9.671l0,0
		c-1.352-0.355-1.929,0.194-3.308,0.443c-4.02,0.726-7.395,4.185-8.021,8.222c-3.191-0.953-6.785-0.822-9.696,0.797
		c-2.911,1.619-4.988,4.842-4.813,8.168c0.174,3.326,2.867,6.469,6.186,6.752c-3.161,5.366-1.347,13.076,3.874,16.471
		c5.221,3.395,13.004,1.923,16.626-3.143c2.032,4.898,7.374,8.198,12.665,7.856c5.291-0.342,10.152-4.281,11.616-9.377
		c1.791,3.968,6.69,6.233,10.873,5.029c4.184-1.205,7.127-5.729,6.534-10.041c3.36,1.853,7.845,1.403,10.771-1.079
		C414.676,86.494,415.85,82.142,414.569,78.525z"/>
	<path style="fill:#F5F5F5;" d="M457.672,133.26c-0.938-2.651-3.613-4.589-6.425-4.654c0.613-3.006-0.64-6.313-3.09-8.159
		c-2.45-1.845-5.975-2.136-8.695-0.717c-1.757-4.511-6.339-7.773-11.177-7.957c-4.837-0.183-9.654,2.723-11.747,7.088l0,0
		c-0.991-0.26-1.413,0.142-2.424,0.325c-2.946,0.532-5.42,3.067-5.879,6.026c-2.339-0.698-4.973-0.603-7.106,0.584
		c-2.133,1.187-3.655,3.549-3.527,5.986c0.128,2.438,2.102,4.741,4.534,4.948c-2.316,3.932-0.987,9.583,2.839,12.071
		c3.826,2.488,9.53,1.409,12.185-2.303c1.489,3.589,5.404,6.008,9.282,5.757c3.878-0.251,7.44-3.137,8.513-6.872
		c1.313,2.908,4.903,4.568,7.969,3.685c3.066-0.883,5.223-4.198,4.788-7.359c2.463,1.358,5.749,1.028,7.894-0.791
		C457.75,139.1,458.61,135.911,457.672,133.26z"/>
	<path style="fill:#F5F5F5;" d="M123.257,57.833c-0.938-2.651-3.613-4.589-6.425-4.654c0.613-3.006-0.64-6.313-3.09-8.159
		c-2.451-1.846-5.975-2.136-8.695-0.717c-1.757-4.511-6.339-7.773-11.177-7.957c-4.837-0.183-9.654,2.723-11.747,7.088l0,0
		c-0.991-0.26-1.413,0.142-2.424,0.325c-2.946,0.532-5.42,3.067-5.879,6.026c-2.339-0.698-4.973-0.603-7.106,0.584
		c-2.133,1.186-3.655,3.549-3.528,5.986c0.128,2.438,2.101,4.741,4.534,4.948c-2.316,3.932-0.987,9.583,2.839,12.071
		c3.826,2.488,9.53,1.409,12.185-2.304c1.489,3.589,5.404,6.008,9.282,5.757c3.878-0.251,7.44-3.137,8.513-6.872
		c1.313,2.908,4.903,4.568,7.969,3.685c3.066-0.883,5.223-4.198,4.788-7.359c2.463,1.358,5.749,1.028,7.894-0.791
		C123.335,63.673,124.195,60.484,123.257,57.833z"/>
	<path style="fill:#EBEBEB;" d="M231.079,107.418c-2.231-6.303-8.591-10.91-15.276-11.065c1.457-7.147-1.521-15.009-7.348-19.397
		c-5.826-4.388-14.206-5.079-20.672-1.705c-4.176-10.725-15.072-18.482-26.574-18.918c-11.501-0.436-22.953,6.474-27.929,16.852l0,0
		c-2.356-0.619-3.361,0.338-5.764,0.772c-7.005,1.265-12.886,7.293-13.977,14.327c-5.561-1.66-11.823-1.433-16.895,1.388
		c-5.072,2.821-8.691,8.438-8.387,14.233c0.304,5.796,4.997,11.273,10.779,11.765c-5.507,9.35-2.348,22.785,6.75,28.7
		c9.097,5.915,22.659,3.351,28.97-5.477c3.54,8.534,12.849,14.284,22.069,13.688c9.22-0.596,17.69-7.459,20.24-16.339
		c3.121,6.914,11.657,10.862,18.947,8.762c7.29-2.099,12.419-9.982,11.385-17.497c5.855,3.228,13.669,2.445,18.768-1.88
		C231.264,121.303,233.31,113.72,231.079,107.418z"/>
	<g>
		<g>
			<path style="fill:#EBEBEB;" d="M76.003,338.408c0,0-6.722,0.193-4.596,15.103c2.126,14.91,4.459,22.73,4.459,22.73
				s0.139,3.339-2.498,2.947c-2.637-0.392-7.799-3.134-9.944-0.478c-2.224,2.755-0.956,6.508,2.787,10.701
				c3.743,4.193,11.606,13.681,12.314,14.541c0.695,0.845,1.108,2.518-0.73,2.539c-1.839,0.021-14.562-2.906-15.589,3.214
				c-1.028,6.12,11.319,16.088,12.648,17.203c1.329,1.116,1.473,1.89,1.06,2.688c-0.413,0.798-4.596-0.589-8.249-1.273
				c-3.653-0.684-8.008-0.837-8.305,2.743c-0.297,3.581,5.686,13.367,25.293,22.308l9.357,3.548l7.888-6.229
				c16.069-14.359,18.876-25.481,17.529-28.812c-1.347-3.331-5.46-1.892-8.745-0.154c-3.285,1.738-6.868,4.305-7.499,3.665
				c-0.631-0.639-0.724-1.422,0.214-2.881c0.938-1.46,9.768-14.644,6.969-20.183c-2.798-5.539-14.078,1.034-15.84,1.56
				c-1.762,0.526-1.864-1.195-1.451-2.208c0.42-1.032,5.112-12.426,7.441-17.542c2.329-5.115,2.426-9.075-0.516-11.045
				c-2.837-1.9-6.952,2.252-9.354,3.409c-2.402,1.157-3.26-2.073-3.26-2.073s-0.094-8.16-2.491-23.028
				c-2.396-14.868-9.027-12.979-9.027-12.979"/>
		</g>
		<g>
			<g>
				<path style="fill:#E0E0E0;" d="M93.736,459.315c-1.717-10.926-4.443-30.398-6.87-47.103c-2.426-16.699-4.637-31.816-6.298-42.75
					c-0.835-5.457-1.511-9.877-1.981-12.947c-0.231-1.519-0.412-2.703-0.536-3.521c-0.056-0.393-0.1-0.698-0.132-0.917
					c-0.028-0.207-0.034-0.314-0.034-0.314s0.027,0.104,0.066,0.309c0.039,0.218,0.093,0.521,0.162,0.912
					c0.138,0.816,0.338,1.997,0.594,3.512c0.512,3.05,1.222,7.469,2.079,12.933c1.717,10.927,3.963,26.04,6.389,42.739
					c2.427,16.705,5.118,36.18,6.78,47.114"/>
			</g>
		</g>
		<g>
			<g>
				<path style="fill:#E0E0E0;" d="M70.491,382.837c0.014-0.017,0.225,0.13,0.597,0.41c0.373,0.278,0.9,0.696,1.547,1.219
					c1.291,1.048,3.037,2.54,4.935,4.222c1.865,1.666,3.551,3.171,4.841,4.324c0.585,0.516,1.078,0.951,1.475,1.3
					c0.35,0.306,0.537,0.483,0.524,0.5c-0.013,0.017-0.226-0.128-0.6-0.405c-0.372-0.28-0.9-0.698-1.541-1.227
					c-1.281-1.061-3.007-2.576-4.904-4.258c-1.876-1.651-3.572-3.144-4.87-4.287c-0.588-0.513-1.083-0.946-1.482-1.294
					C70.663,383.032,70.477,382.854,70.491,382.837z"/>
			</g>
		</g>
		<g>
			<g>
				<path style="fill:#E0E0E0;" d="M85.263,394.428c-0.067-0.054,2.852-3.79,6.518-8.343c3.668-4.555,6.694-8.203,6.761-8.149
					c0.067,0.054-2.851,3.789-6.519,8.344C88.357,390.833,85.33,394.482,85.263,394.428z"/>
			</g>
		</g>
		<g>
			<g>
				<path style="fill:#E0E0E0;" d="M87.833,420.245c-0.012-0.018,0.197-0.178,0.585-0.453c0.441-0.308,0.992-0.693,1.647-1.15
					c1.388-0.972,3.3-2.323,5.355-3.891c2.059-1.564,3.873-3.044,5.178-4.126c0.615-0.509,1.132-0.937,1.547-1.28
					c0.367-0.301,0.577-0.459,0.591-0.443c0.014,0.016-0.168,0.205-0.511,0.534c-0.343,0.328-0.848,0.795-1.484,1.357
					c-1.27,1.127-3.068,2.638-5.132,4.206c-2.061,1.572-3.998,2.899-5.42,3.826c-0.713,0.461-1.295,0.827-1.703,1.069
					C88.075,420.137,87.844,420.263,87.833,420.245z"/>
			</g>
		</g>
		<g>
			<g>
				<path style="fill:#E0E0E0;" d="M72.164,412.701c0.009-0.02,0.237,0.064,0.643,0.233c0.463,0.201,1.032,0.448,1.703,0.739
					c1.433,0.636,3.403,1.534,5.571,2.544c2.168,1.01,4.124,1.94,5.533,2.627c0.655,0.327,1.21,0.603,1.662,0.828
					c0.389,0.202,0.6,0.323,0.591,0.342c-0.009,0.019-0.237-0.064-0.642-0.233c-0.463-0.201-1.032-0.448-1.703-0.739
					c-1.433-0.636-3.403-1.535-5.571-2.545c-2.168-1.01-4.123-1.94-5.532-2.627c-0.655-0.326-1.21-0.603-1.662-0.829
					C72.366,412.842,72.155,412.721,72.164,412.701z"/>
			</g>
		</g>
		<g>
			<g>
				<path style="fill:#E0E0E0;" d="M71.537,435.781c0.009-0.02,0.3,0.09,0.819,0.306c0.57,0.245,1.304,0.56,2.187,0.939
					c1.841,0.805,4.375,1.937,7.165,3.204c2.791,1.268,5.311,2.432,7.129,3.288c0.866,0.415,1.587,0.761,2.146,1.029
					c0.504,0.249,0.778,0.396,0.769,0.416s-0.3-0.09-0.819-0.306c-0.57-0.245-1.304-0.56-2.187-0.939
					c-1.841-0.805-4.375-1.937-7.166-3.205c-2.791-1.268-5.31-2.431-7.128-3.287c-0.865-0.415-1.587-0.761-2.146-1.029
					C71.802,435.948,71.528,435.801,71.537,435.781z"/>
			</g>
		</g>
		<g>
			<g>
				<path style="fill:#E0E0E0;" d="M91.33,444.607c-0.012-0.018,0.247-0.227,0.726-0.592c0.525-0.395,1.21-0.911,2.035-1.533
					c1.717-1.296,4.081-3.095,6.634-5.155c2.557-2.056,4.823-3.979,6.453-5.381c0.784-0.673,1.434-1.232,1.932-1.66
					c0.458-0.39,0.718-0.599,0.733-0.583c0.014,0.016-0.218,0.254-0.651,0.673c-0.433,0.418-1.07,1.013-1.868,1.735
					c-1.595,1.447-3.842,3.399-6.404,5.459c-2.558,2.063-4.947,3.838-6.699,5.09c-0.878,0.624-1.593,1.121-2.095,1.454
					C91.625,444.448,91.342,444.624,91.33,444.607z"/>
			</g>
		</g>
	</g>
	<g>
		<g>
			<path style="fill:#EBEBEB;" d="M443.431,402.601c2.606,1.331,4.421,3.933,5.236,6.745c0.815,2.812,0.715,5.822,0.203,8.705
				c-0.991,5.579-4.541,11.051-8.26,15.325c-4.468-4.426-5.101-11.697-5.191-15.406
				C435.277,412.107,438.579,401.424,443.431,402.601"/>
		</g>
		<g>
			<path style="fill:#EBEBEB;" d="M445.52,442.994c-0.556-3.223,0.984-6.624,3.558-8.643c2.574-2.019,6.036-2.725,9.273-2.272
				c1.497,0.209,3.095,0.75,3.878,2.044c0.732,1.209,0.54,2.82-0.193,4.03c-0.733,1.21-1.922,2.074-3.165,2.749
				C454.613,443.217,450.066,444.676,445.52,442.994"/>
		</g>
		<g>
			<g>
				<path style="fill:#E0E0E0;" d="M439.103,455.64c-0.072-0.023,0.21-1.418,0.871-3.643c0.331-1.113,0.89-2.416,1.666-3.74
					c0.781-1.316,1.609-2.782,2.712-4.196c2.172-2.841,4.872-4.796,7.02-5.717c1.073-0.472,1.993-0.707,2.628-0.844
					c0.643-0.109,1.001-0.137,1.008-0.096c0.025,0.112-1.401,0.338-3.445,1.346c-2.037,0.999-4.595,2.936-6.709,5.7
					c-1.065,1.362-1.909,2.815-2.709,4.102c-0.792,1.292-1.364,2.509-1.746,3.589C439.638,454.303,439.197,455.67,439.103,455.64z"
					/>
			</g>
		</g>
		<g>
			<g>
				<path style="fill:#E0E0E0;" d="M441.634,410.958c0.044,0.001,0.066,0.676,0.069,1.894c0.003,1.219-0.016,2.981-0.059,5.159
					c-0.086,4.355-0.273,10.371-0.641,17.01c-0.37,6.641-0.874,12.642-1.33,16.976c-0.228,2.167-0.433,3.918-0.599,5.125
					c-0.163,1.208-0.274,1.873-0.318,1.868c-0.044-0.005-0.016-0.679,0.072-1.894c0.103-1.328,0.236-3.057,0.397-5.141
					c0.341-4.34,0.773-10.337,1.143-16.97c0.32-6.578,0.609-12.53,0.826-16.989c0.105-2.088,0.193-3.821,0.26-5.151
					C441.529,411.629,441.59,410.957,441.634,410.958z"/>
			</g>
		</g>
		<g>
			<path style="fill:#EBEBEB;" d="M438.247,444.706c-1.583-6.711-6.619-12.507-13.041-15.01c-1.635-0.637-3.734-0.976-4.944,0.297
				c-1.212,1.275-0.763,3.365-0.004,4.952c3.156,6.602,10.624,10.867,17.912,10.231"/>
		</g>
		<g>
			<g>
				<path style="fill:#E0E0E0;" d="M426.698,434.618c0.021-0.038,0.347,0.102,0.918,0.389c0.576,0.28,1.379,0.738,2.358,1.332
					c1.913,1.226,4.591,3.058,6.715,5.916c1.053,1.424,1.809,2.961,2.276,4.423c0.475,1.466,0.608,2.854,0.658,4.005
					c0.009,1.154-0.051,2.085-0.173,2.717c-0.102,0.634-0.178,0.979-0.221,0.973c-0.127-0.014,0.091-1.42-0.054-3.666
					c-0.106-1.117-0.279-2.45-0.766-3.847c-0.48-1.395-1.216-2.854-2.23-4.227c-2.041-2.752-4.619-4.611-6.451-5.919
					C427.857,435.434,426.647,434.707,426.698,434.618z"/>
			</g>
		</g>
	</g>
</g>
<g id="Background_Simple" style="display:none;">
	<path style="display:inline;fill:#F5F5F5;" d="M389.867,133.678l-1.968,0.03c-16.591,0.252-31.839,9.354-39.242,24.035
		c-0.952,1.887-1.768,3.843-2.433,5.855c-4.79,14.486-1.622,31.39,8.122,43.34c5.73,7.028,13.724,12.738,16.506,21.33
		c3.62,11.182-2.852,22.768-9.066,32.648c-6.214,9.88-12.661,21.492-8.991,32.658c2.298,6.993,8.286,12.298,14.862,15.698
		c17.409,9,39.4,6.085,55.674-4.477c16.274-10.562,27.272-27.783,33.57-46.092c8.823-25.649,8.913-54.906-3.014-79.515
		S417.185,135.597,389.867,133.678z"/>
	<path style="display:inline;fill:#F5F5F5;" d="M65.132,342.181l1.403,0.784c11.829,6.606,26.329,6.408,37.564-0.941
		c1.444-0.945,2.821-1.994,4.114-3.144c9.309-8.28,13.982-21.523,11.982-33.954c-1.177-7.31-4.491-14.615-2.944-21.826
		c2.014-9.384,11.326-14.926,19.758-19.369c8.432-4.443,17.737-10.013,19.71-19.406c1.235-5.883-0.828-12.081-4.085-17.172
		c-8.624-13.48-25.36-20.412-41.181-19.601c-15.821,0.811-30.637,8.485-42.575,18.851c-16.724,14.521-28.751,35.163-30.384,57.434
		C36.86,306.106,46.608,329.654,65.132,342.181z"/>
	<circle style="display:inline;fill:#F5F5F5;" cx="123.715" cy="153.099" r="35.341"/>
	<circle style="display:inline;fill:#F5F5F5;" cx="380.681" cy="361.949" r="19.869"/>
</g>
<g id="Rain">
	<g>
		<g>
			<path style="fill:#263238;" d="M147.568,176.053c-0.123-0.075,1.511-2.99,3.649-6.509c2.139-3.521,3.971-6.314,4.094-6.24
				c0.123,0.075-1.511,2.989-3.649,6.51C149.524,173.333,147.69,176.127,147.568,176.053z"/>
		</g>
		<g>
			<path style="fill:#263238;" d="M178.737,203.013c-0.123-0.075,1.511-2.989,3.649-6.51c2.139-3.521,3.971-6.314,4.094-6.24
				c0.123,0.075-1.511,2.989-3.649,6.51C180.693,200.294,178.86,203.088,178.737,203.013z"/>
		</g>
		<g>
			<path style="fill:#263238;" d="M146.077,223.588c-0.123-0.075,1.511-2.989,3.649-6.509c2.139-3.521,3.971-6.314,4.094-6.24
				c0.123,0.075-1.511,2.989-3.649,6.51C148.033,220.869,146.2,223.663,146.077,223.588z"/>
		</g>
		<g>
			<path style="fill:#263238;" d="M102.278,307.913c-0.123-0.075,1.511-2.989,3.649-6.509c2.139-3.521,3.971-6.314,4.094-6.24
				c0.123,0.075-1.511,2.989-3.649,6.51C104.234,305.194,102.401,307.987,102.278,307.913z"/>
		</g>
		<g>
			<path style="fill:#263238;" d="M246.128,445.364c-0.123-0.075,1.511-2.989,3.649-6.509c2.139-3.521,3.971-6.314,4.094-6.24
				c0.123,0.075-1.511,2.989-3.649,6.51C248.084,442.645,246.251,445.439,246.128,445.364z"/>
		</g>
		<g>
			<path style="fill:#263238;" d="M329.161,169.36c-0.123-0.075,1.511-2.99,3.649-6.509c2.139-3.521,3.971-6.314,4.094-6.24
				c0.123,0.075-1.511,2.989-3.649,6.51C331.117,166.641,329.283,169.435,329.161,169.36z"/>
		</g>
		<g>
			<path style="fill:#263238;" d="M379.844,171.64c-0.123-0.075,1.511-2.989,3.649-6.51c2.139-3.521,3.972-6.314,4.094-6.24
				c0.123,0.075-1.511,2.989-3.649,6.51C381.8,168.921,379.967,171.715,379.844,171.64z"/>
		</g>
		<g>
			<path style="fill:#263238;" d="M336.704,218.954c-0.123-0.075,1.511-2.989,3.649-6.51c2.139-3.521,3.971-6.314,4.094-6.24
				c0.123,0.075-1.511,2.989-3.649,6.51C338.66,216.234,336.827,219.028,336.704,218.954z"/>
		</g>
		<g>
			<path style="fill:#263238;" d="M357.003,277.104c-0.123-0.075,1.511-2.989,3.649-6.509c2.139-3.521,3.971-6.314,4.094-6.24
				c0.123,0.075-1.511,2.989-3.649,6.51C358.959,274.385,357.126,277.178,357.003,277.104z"/>
		</g>
		<g>
			<path style="fill:#263238;" d="M360.138,344.263c-0.123-0.075,1.511-2.99,3.649-6.51c2.139-3.521,3.971-6.314,4.094-6.24
				c0.123,0.075-1.511,2.989-3.649,6.51C362.094,341.543,360.261,344.337,360.138,344.263z"/>
		</g>
		<g>
			<path style="fill:#263238;" d="M57.913,433.83c-0.123-0.075,1.511-2.989,3.649-6.509c2.139-3.521,3.971-6.314,4.094-6.24
				c0.123,0.075-1.511,2.989-3.649,6.51C59.869,431.111,58.036,433.905,57.913,433.83z"/>
		</g>
		<g>
			<path style="fill:#263238;" d="M97.699,260.219c-0.123-0.075,1.511-2.989,3.649-6.51c2.139-3.521,3.971-6.314,4.094-6.24
				c0.123,0.075-1.511,2.989-3.649,6.51C99.655,257.5,97.822,260.293,97.699,260.219z"/>
		</g>
		<g>
			<path style="fill:#263238;" d="M152.365,273.405c-0.123-0.075,1.511-2.989,3.649-6.509c2.139-3.521,3.971-6.314,4.094-6.24
				c0.123,0.075-1.511,2.989-3.649,6.51C154.321,270.686,152.487,273.48,152.365,273.405z"/>
		</g>
		<g>
			<path style="fill:#263238;" d="M94.692,368.323c-0.123-0.075,1.511-2.989,3.649-6.509c2.139-3.521,3.971-6.315,4.094-6.24
				c0.123,0.075-1.511,2.989-3.649,6.51C96.648,365.604,94.815,368.398,94.692,368.323z"/>
		</g>
		<g>
			<path style="fill:#263238;" d="M254.964,393.501c-0.123-0.075,1.511-2.989,3.649-6.51c2.139-3.521,3.971-6.314,4.094-6.24
				c0.123,0.075-1.511,2.989-3.649,6.51C256.92,390.781,255.087,393.575,254.964,393.501z"/>
		</g>
		<g>
			<path style="fill:#263238;" d="M288.958,423.302c-0.123-0.075,1.511-2.989,3.649-6.509c2.139-3.521,3.971-6.314,4.094-6.24
				c0.123,0.075-1.511,2.989-3.649,6.51C290.914,420.582,289.081,423.376,288.958,423.302z"/>
		</g>
		<g>
			<path style="fill:#263238;" d="M281.513,254.648c-0.123-0.075,1.511-2.99,3.649-6.51c2.139-3.521,3.971-6.314,4.094-6.24
				c0.123,0.075-1.511,2.989-3.649,6.51C283.469,251.929,281.636,254.723,281.513,254.648z"/>
		</g>
	</g>
</g>
<g id="Cloud">
	<path style="fill:#455A64;" d="M377.58,92.259c-3.323-9.387-12.795-16.248-22.75-16.479c2.17-10.644-2.266-22.354-10.943-28.889
		c-8.677-6.535-21.157-7.564-30.788-2.539c-6.22-15.973-22.448-27.525-39.577-28.174c-17.129-0.649-34.185,9.642-41.596,25.098l0,0
		c-3.508-0.922-5.005,0.504-8.584,1.15c-10.432,1.883-19.192,10.862-20.817,21.338c-8.282-2.472-17.608-2.134-25.161,2.067
		c-7.553,4.201-12.943,12.567-12.491,21.198c0.452,8.631,7.441,16.789,16.054,17.522c-8.203,13.925-3.496,33.935,10.053,42.744
		c13.549,8.809,33.747,4.991,43.146-8.156c5.273,12.71,19.137,21.274,32.868,20.386c13.731-0.888,26.346-11.109,30.145-24.334
		c4.649,10.297,17.361,16.176,28.218,13.05c10.857-3.126,18.496-14.866,16.956-26.059c8.72,4.808,20.358,3.642,27.952-2.8
		C377.857,112.939,380.903,101.646,377.58,92.259z"/>
	<g>
		<path style="fill:#263238;" d="M271.941,65.423c-0.059,0.048-0.791-1.05-2.504-2.662c-1.729-1.564-4.538-3.636-8.556-4.891
			c-1.998-0.62-4.278-1.037-6.738-1.05c-2.455-0.023-5.097,0.387-7.658,1.418c-5.129,1.999-9.883,6.529-12.223,12.474
			c-1.155,2.858-1.622,5.896-1.51,8.787l0.015,0.39l-0.362-0.138c-4.964-1.896-10.256-1.543-14.401,0.085
			c-4.206,1.615-7.199,4.526-9.052,7.267c-1.875,2.767-2.689,5.373-3.083,7.158c-0.198,0.898-0.304,1.604-0.353,2.083
			c-0.055,0.479-0.092,0.729-0.108,0.729c-0.016-0.001-0.01-0.253,0.015-0.737c0.02-0.484,0.097-1.199,0.269-2.111
			c0.343-1.813,1.116-4.469,2.983-7.307c0.933-1.41,2.14-2.85,3.658-4.173c1.523-1.312,3.376-2.488,5.507-3.325
			c4.229-1.693,9.642-2.083,14.749-0.146l-0.347,0.252c-0.123-2.967,0.354-6.082,1.536-9.006
			c2.394-6.081,7.265-10.704,12.532-12.729c2.63-1.044,5.334-1.445,7.837-1.403c2.508,0.032,4.823,0.479,6.846,1.131
			c4.067,1.32,6.88,3.47,8.583,5.094c0.833,0.845,1.453,1.526,1.812,2.038c0.171,0.229,0.31,0.415,0.424,0.568
			C271.904,65.349,271.948,65.418,271.941,65.423z"/>
	</g>
</g>
<g id="Character">
	<g>
		<g>
			<g>
				<g>
					<g>
						<g>
							<g>
								<g>
									<g>
										<g>
											<g>
												<g>
													<path style="fill:#FF725E;" d="M369.148,404.696l20.2,22.338c0,0,29.489-13.03,33.624-9.266l-41.905,40.723
														l-32.903-33.514L369.148,404.696z"/>
												</g>
											</g>
										</g>
									</g>
								</g>
							</g>
						</g>
						<g style="opacity:0.3;">
							<g>
								<g>
									<g>
										<g>
											<g>
												<g>
													<path d="M369.148,404.696l20.2,22.338c0,0,29.489-13.03,33.624-9.266l-41.905,40.723l-32.903-33.514L369.148,404.696z"
														/>
												</g>
											</g>
										</g>
									</g>
								</g>
							</g>
						</g>
						<g>
							<g>
								<g>
									<g>
										<g>
											<g>
												<g>
													<g>
														<path style="fill:#E0E0E0;" d="M374.626,437.81c-0.596,1.01-0.27,2.466,0.714,3.103
															c0.985,0.636,2.469,0.318,3.082-0.681c0.613-0.999,0.276-2.759-0.774-3.282c-1.05-0.522-2.772-0.053-3.127,1.064"/>
													</g>
												</g>
											</g>
										</g>
									</g>
								</g>
							</g>
						</g>
						<g>
							<g>
								<g>
									<g>
										<g>
											<g>
												<g>
													<path style="fill:#263238;" d="M381.068,458.491l-3.184-3.508l41.368-37.732c0,0,2.654-1.001,3.721,0.518
														L381.068,458.491z"/>
												</g>
											</g>
										</g>
									</g>
								</g>
							</g>
						</g>
						<g>
							<g>
								<g>
									<g>
										<g>
											<g>
												<g>
													<g>
														<path style="fill:#263238;" d="M389.82,426.161c0.192,0.211-0.741,1.298-1.108,2.935
															c-0.41,1.627-0.068,3.018-0.335,3.12c-0.227,0.143-1.111-1.376-0.631-3.35
															C388.208,426.888,389.682,425.93,389.82,426.161z"/>
													</g>
												</g>
											</g>
										</g>
									</g>
								</g>
							</g>
						</g>
						<g>
							<g>
								<g>
									<g>
										<g>
											<g>
												<g>
													<g>
														<path style="fill:#263238;" d="M395.982,423.708c0.239,0.153-0.309,1.362-0.163,2.903
															c0.101,1.545,0.835,2.651,0.622,2.84c-0.161,0.219-1.467-0.842-1.612-2.761
															C394.668,424.772,395.788,423.517,395.982,423.708z"/>
													</g>
												</g>
											</g>
										</g>
									</g>
								</g>
							</g>
						</g>
						<g>
							<g>
								<g>
									<g>
										<g>
											<g>
												<g>
													<g>
														<path style="fill:#263238;" d="M403.59,426.542c-0.144,0.224-1.422-0.522-1.985-2.153
															c-0.575-1.628-0.04-3.007,0.212-2.921c0.279,0.056,0.242,1.261,0.725,2.593
															C402.994,425.405,403.774,426.324,403.59,426.542z"/>
													</g>
												</g>
											</g>
										</g>
									</g>
								</g>
							</g>
						</g>
						<g>
							<g>
								<g>
									<g>
										<g>
											<g>
												<g>
													<g>
														<path style="fill:#263238;" d="M384.652,421.581c0.095,0.27-1.118,0.9-2.198,2.102
															c-1.105,1.18-1.627,2.443-1.905,2.371c-0.262-0.033-0.119-1.644,1.173-3.043
															C383.003,421.604,384.596,421.322,384.652,421.581z"/>
													</g>
												</g>
											</g>
										</g>
									</g>
								</g>
							</g>
						</g>
					</g>
				</g>
			</g>
			<g>
				<g>
					<g>
						<g>
							<g>
								<g>
									<g>
										<g>
											<g>
												<g>
													<path style="fill:#FF725E;" d="M364.26,409.709l20.2,22.338c0,0,29.489-13.03,33.624-9.266l-41.905,40.723
														l-32.902-33.514L364.26,409.709z"/>
												</g>
											</g>
										</g>
									</g>
								</g>
							</g>
						</g>
						<g>
							<g>
								<g>
									<g>
										<g>
											<g>
												<g>
													<g>
														<path style="fill:#E0E0E0;" d="M369.738,442.823c-0.596,1.01-0.27,2.466,0.714,3.103
															c0.985,0.636,2.469,0.318,3.082-0.681c0.613-0.999,0.276-2.759-0.774-3.282c-1.05-0.522-2.772-0.053-3.127,1.064"/>
													</g>
												</g>
											</g>
										</g>
									</g>
								</g>
							</g>
						</g>
						<g>
							<g>
								<g>
									<g>
										<g>
											<g>
												<g>
													<path style="fill:#263238;" d="M376.18,463.503l-3.184-3.508l41.368-37.732c0,0,2.654-1.001,3.721,0.517
														L376.18,463.503z"/>
												</g>
											</g>
										</g>
									</g>
								</g>
							</g>
						</g>
						<g>
							<g>
								<g>
									<g>
										<g>
											<g>
												<g>
													<g>
														<path style="fill:#263238;" d="M384.932,431.173c0.192,0.211-0.741,1.298-1.108,2.934
															c-0.41,1.627-0.068,3.018-0.335,3.12c-0.227,0.143-1.111-1.376-0.631-3.35
															C383.32,431.901,384.794,430.942,384.932,431.173z"/>
													</g>
												</g>
											</g>
										</g>
									</g>
								</g>
							</g>
						</g>
						<g>
							<g>
								<g>
									<g>
										<g>
											<g>
												<g>
													<g>
														<path style="fill:#263238;" d="M391.094,428.72c0.239,0.153-0.309,1.362-0.163,2.903
															c0.101,1.545,0.835,2.651,0.623,2.84c-0.161,0.219-1.467-0.842-1.612-2.761
															C389.779,429.785,390.9,428.529,391.094,428.72z"/>
													</g>
												</g>
											</g>
										</g>
									</g>
								</g>
							</g>
						</g>
						<g>
							<g>
								<g>
									<g>
										<g>
											<g>
												<g>
													<g>
														<path style="fill:#263238;" d="M398.702,431.555c-0.144,0.224-1.422-0.521-1.985-2.153
															c-0.575-1.628-0.04-3.007,0.212-2.921c0.279,0.056,0.242,1.261,0.725,2.593
															C398.106,430.417,398.886,431.337,398.702,431.555z"/>
													</g>
												</g>
											</g>
										</g>
									</g>
								</g>
							</g>
						</g>
						<g>
							<g>
								<g>
									<g>
										<g>
											<g>
												<g>
													<g>
														<path style="fill:#263238;" d="M379.764,426.593c0.095,0.27-1.118,0.9-2.198,2.102
															c-1.105,1.18-1.627,2.443-1.905,2.371c-0.262-0.033-0.119-1.644,1.173-3.043
															C378.115,426.617,379.708,426.335,379.764,426.593z"/>
													</g>
												</g>
											</g>
										</g>
									</g>
								</g>
							</g>
						</g>
					</g>
				</g>
			</g>
		</g>
		<g>
			<g>
				<g>
					<path style="fill:#263238;" d="M208.71,201.966c-1.513-1.166-0.905-4.047,0.95-4.502c-0.911-1.268,0.371-3.051,1.827-3.613
						c1.456-0.562,3.138-0.531,4.459-1.361c-1.764-0.343-2.928-2.479-2.259-4.147c-1.082-0.405-1.811-1.595-1.681-2.743
						c0.131-1.148,1.109-2.144,2.254-2.295c-1.266-0.743-0.111-2.87,1.341-3.077c1.453-0.207,2.88,0.541,4.347,0.55
						c3.318-1.403,7.084-1.723,10.592-0.899c-1.159-2.201-2.318-4.401-3.476-6.601c-0.275-0.523-0.558-1.076-0.539-1.667
						c0.042-1.297,1.449-2.079,2.702-2.415c2.651-0.712,5.514-0.615,8.111,0.274c0.834,0.286,1.787,0.889,1.678,1.763
						c2.055,0.01,3.956,1.021,5.76,2.005c1.011,0.552,2.102,1.193,2.494,2.277c0.063-1.146-0.425-2.239-0.772-3.332
						c-0.347-1.094-0.539-2.355,0.057-3.336c0.596-0.981,2.266-1.277,2.845-0.286c-0.743-0.91,0.119-2.389,1.259-2.676
						c1.139-0.287,2.314,0.207,3.385,0.689c0.747,0.336,1.629,0.909,1.491,1.716c1.127-1.492,4.061-0.373,3.907,1.491
						c1.463-0.503,3.252,0.532,3.547,2.051c2.102-0.232,4.127,1.86,3.826,3.954c-0.19-2.062-0.379-4.123-0.569-6.185
						c-0.107-1.168,0.613-2.915,1.613-2.303c-1.513-0.716-1.39-3.193-0.023-4.16c1.367-0.967,3.314-0.649,4.725,0.252
						c0.135,0.841,0.27,1.683,0.405,2.525c1.351-0.224,2.806,0.489,3.456,1.693c0.651,1.204,0.449,2.812-0.479,3.819
						c0.918-0.36,1.929,0.559,2.053,1.538c0.123,0.978-0.347,1.923-0.803,2.797c2.057-0.534,4.072,2.195,2.956,4.003
						c1.656-0.048,3.322,0.363,4.766,1.175c-0.156-1.401,0.712-2.854,2.02-3.381c1.308-0.527,2.94-0.082,3.799,1.036
						c0.954-1.634,3.562-1.939,4.866-0.567c1.306-1.53,4.224-1.728,5.07,0.097c0.874,1.886-1.012,3.831-2.688,5.061
						c-1.818,1.333-3.635,2.666-5.453,3.999c3.929-0.182,7.859-0.364,11.788-0.546c0.368-0.017,0.762-0.027,1.072,0.171
						c0.427,0.273,0.546,0.836,0.857,1.235c0.431,0.554,1.188,0.742,1.705,1.217c1.414,1.299,0.177,3.814-1.583,4.581
						c-1.76,0.767-3.794,0.563-5.634,1.111c1.265,0.927,2.529,1.854,3.794,2.781c1.618-2.045,5.115-2.174,6.879-0.254
						c1.303-1.268,3.46-0.478,5.066,0.374c1.439,0.763,2.997,1.658,3.541,3.194c0.695,1.963-0.671,4.176-2.512,5.15
						c-1.841,0.974-4.014,1.021-6.097,1.046c-0.316,1.382,1.12,2.54,2.475,2.958c1.354,0.418,2.907,0.553,3.889,1.575
						c1.334,1.388,1.017,3.82,2.366,5.194c0.408,0.416,0.951,0.71,1.254,1.208c0.431,0.708,0.26,1.611,0.076,2.419
						c-0.228,1-0.456,2.001-0.685,3.001c-0.113,0.495-0.233,1.007-0.539,1.413c-1.001,1.33-3.207,0.667-4.326-0.566
						c-1.119-1.232-1.785-2.899-3.165-3.828c1.491,1.914,3.043,3.979,3.233,6.397c0.19,2.418-1.668,5.147-4.081,4.9
						c-2.442-0.249-3.633-3.034-4.38-5.372c-0.747-2.339-2.106-5.099-4.56-5.141"/>
				</g>
				<g>
					<path style="fill:#263238;" d="M212.342,202.114c-1.015-1.935-4.45-1.665-5.15,0.405c-2.203-0.383-4.584,0.54-5.954,2.307
						c-1.37,1.768-1.669,4.303-0.749,6.341c0.735,1.628,3.164,2.836,4.183,1.37c-0.14,1.567,0.563,3.185,1.804,4.152
						c-2.266,1.308-2.86,4.796-1.154,6.78c-3.333,0.525-5.031,5.297-2.779,7.809c-1.525,1.291-1.735,3.855-0.44,5.376
						c1.294,1.522,3.858,1.726,5.377,0.428c-0.077,1.545-0.132,3.19,0.648,4.526c0.78,1.336,2.732,2.1,3.922,1.111
						c-0.683,3.067,2.24,6.361,5.367,6.047c-0.901,1.444-0.48,3.557,0.905,4.546c1.385,0.989,3.521,0.701,4.594-0.62
						c2.525,1.453,5.05,2.906,7.576,4.36c1.676,0.965,3.364,1.935,5.19,2.573c2.331,0.814,4.858,1.063,7.304,0.72
						c0.787-0.111,1.605-0.279,2.362-0.035c0.868,0.281,1.472,1.043,2.094,1.71c3.284,3.524,8.491,5.133,13.19,4.075
						c0.741-0.167,1.488-0.396,2.244-0.32c0.871,0.088,1.643,0.569,2.404,1c1.867,1.057,3.868,1.877,5.94,2.434
						c1.778,0.478,3.801,0.727,5.353-0.262c1.552-0.99,1.989-3.669,0.388-4.578c0.477-1.096,1.362-2.086,2.524-2.367
						c1.162-0.281,2.565,0.36,2.85,1.521c0.285,1.161-0.991,2.472-2.093,2.006c1.013,2.178,4.63,2.086,5.89,0.041
						c1.261-2.044,0.215-4.972-1.847-6.204c1.283-1.234,2.254-2.791,2.799-4.487c0.261,1.96,2.303,3.495,4.258,3.203
						c0.09,1.831,0.743,3.719,2.157,4.885c1.414,1.166,3.677,1.379,5.046,0.162c1.37-1.217,1.199-3.862-0.479-4.6
						c2.15-1.117,2.079-4.828-0.112-5.862c1.518-1.825,1.547-4.724,0.066-6.579c0.771,1.476,3.051,1.851,4.255,0.701
						c0.07,2.077,2.623,3.08,4.701,3.084c1.631,0.002,3.389-0.328,4.1-2.352c0.332-0.946,0.285-1.998-0.075-2.933
						c-0.853-2.212-2.889-3.516-4.835-4.729c0.208-3.047,0.921-6.058,2.102-8.874c2.163,1.369,5.367,1.049,6.927-0.98l-8.003-12.521
						c0,0-24.413-16.67-25.359-17.122c-0.946-0.452-69.598,1.586-69.598,1.586c-1.911,0.724-4.113-1.068-4.289-3.104
						c-0.176-2.036,1.202-3.953,2.945-5.02c1.743-1.067,3.806-1.451,5.817-1.817c-1.705-0.965-3.508-2.028-4.201-3.933
						c-0.432-1.189-0.242-2.566,0.702-3.408c1.361-1.215,3.068-0.271,4.608-0.597c0.902-0.191,1.65-0.793,2.409-1.316"/>
				</g>
				<g>
					<path style="fill:#AA7D6D;" d="M249.101,197.258l32.88,6.375c9.88,3.425,10.695,17.955,6.854,27.681
						c-4.268,10.805-9.905,23.829-14.826,31.075c-9.896,14.571-22.905,10.907-22.905,10.907c0.021-0.055-1.08,2.292-3.834,7.982
						l-1.869,3.108l-32.959-15.056l29.067-68.783C242.801,197.647,246.1,196.218,249.101,197.258z"/>
				</g>
				<g>
					<path style="fill:#263238;" d="M279.568,241.179c-0.463,1.084-1.763,1.586-2.904,1.123c-1.139-0.462-1.69-1.714-1.227-2.798
						c0.463-1.084,1.764-1.587,2.902-1.125C279.481,238.841,280.031,240.095,279.568,241.179z"/>
				</g>
				<g>
					<path style="fill:#263238;" d="M282.913,236.685c-0.374,0.146-1.372-1.705-3.548-2.72c-2.159-1.045-4.279-0.676-4.389-1.053
						c-0.061-0.172,0.418-0.528,1.35-0.707c0.92-0.182,2.316-0.124,3.667,0.517c1.35,0.643,2.255,1.676,2.67,2.494
						C283.088,236.042,283.091,236.625,282.913,236.685z"/>
				</g>
				<g>
					<path style="fill:#263238;" d="M259.189,232.037c-0.463,1.084-1.763,1.586-2.904,1.123c-1.139-0.462-1.689-1.714-1.226-2.798
						c0.463-1.084,1.764-1.587,2.903-1.125C259.102,229.7,259.652,230.953,259.189,232.037z"/>
				</g>
				<g>
					<path style="fill:#263238;" d="M261.362,227.058c-0.374,0.145-1.374-1.706-3.549-2.72c-2.158-1.045-4.278-0.676-4.389-1.053
						c-0.06-0.172,0.415-0.529,1.35-0.707c0.92-0.183,2.316-0.125,3.667,0.516c1.35,0.643,2.254,1.676,2.67,2.494
						C261.536,226.415,261.54,226.998,261.362,227.058z"/>
				</g>
				<g>
					<path style="fill:#263238;" d="M261.679,246.877c0.048-0.128,1.508,0.273,3.829,1.021c0.582,0.204,1.159,0.34,1.43,0.005
						c0.319-0.34,0.368-1.047,0.402-1.819c0.109-1.588,0.224-3.252,0.343-4.996c0.547-7.086,1.221-12.807,1.505-12.783
						c0.285,0.024,0.074,5.788-0.473,12.874c-0.148,1.741-0.288,3.401-0.424,4.988c-0.086,0.729-0.061,1.614-0.735,2.313
						c-0.344,0.344-0.893,0.454-1.294,0.383c-0.407-0.059-0.722-0.199-1.004-0.312C263.001,247.637,261.63,247.005,261.679,246.877z
						"/>
				</g>
				<g>
					<path style="fill:#896255;" d="M251.103,273.297c0,0-10.914-4.292-18.446-15.529c0,0,0.176,13.405,16.627,19.334
						L251.103,273.297z"/>
				</g>
				<path style="fill:#896255;" d="M256.421,246.648c-1.171-0.504-2.547-0.502-3.645,0.218c-1.098,0.719-1.836,2.22-1.62,3.643
					c0.243,1.603,1.588,2.727,2.977,3.015c1.389,0.288,1.961,0.415,3.336,0.013l0.148-0.151c2.008-2.043,1.473-5.552-1.145-6.716
					C256.455,246.663,256.438,246.655,256.421,246.648z"/>
				<g>
					<path style="fill:#263238;" d="M257.548,254.474c-0.391-0.011-0.17-2.608-2.232-4.644c-2.057-2.042-4.85-1.991-4.839-2.356
						c-0.022-0.166,0.66-0.451,1.831-0.381c1.149,0.06,2.79,0.574,4.052,1.82c1.257,1.248,1.709,2.806,1.705,3.879
						C258.069,253.886,257.724,254.504,257.548,254.474z"/>
				</g>
				<g>
					<path style="fill:#263238;" d="M253.949,218.548c0.402-0.566,2.63,0.37,5.435,0.793c2.797,0.48,5.206,0.29,5.41,0.954
						c0.086,0.314-0.459,0.801-1.513,1.165c-1.045,0.366-2.605,0.557-4.285,0.288c-1.679-0.272-3.1-0.943-3.978-1.619
						C254.133,219.452,253.768,218.82,253.949,218.548z"/>
				</g>
				<g>
					<path style="fill:#263238;" d="M285.067,230.021c-0.614,0.314-1.87-0.901-3.659-1.771c-1.758-0.932-3.48-1.23-3.589-1.911
						c-0.036-0.323,0.436-0.704,1.322-0.859c0.875-0.157,2.151-0.022,3.371,0.596c1.218,0.62,2.08,1.571,2.468,2.37
						C285.379,229.253,285.349,229.859,285.067,230.021z"/>
				</g>
				<g>
					<path style="fill:#263238;" d="M234.641,217.037c-0.93,0.818-1.251,2.384-0.689,3.364c0.561,0.98,1.917,1.221,2.912,0.518
						c0.242,1.25,2.265,1.066,2.625-0.239c0.621,0.882,2.28,0.276,2.518-0.921c0.803,0.852,2.153-0.459,3.18-1.276
						c0.562-0.447,1.19-0.76,1.787-1.135c1.877-1.18,3.472-3.016,4.462-5.14c1.982-0.843,3.388-2.936,4.647-4.899
						c0.786-1.225,1.572-2.45,2.358-3.674c0.388-0.185,0.776-0.37,1.163-0.556c-0.502,0.92-0.205,2.068,0.431,2.703
						c0.635,0.635,1.524,0.878,2.383,1.103c0.85,0.223,1.7,0.447,2.55,0.67c0.417,0.375,0.833,0.749,1.25,1.124
						c-1.012,1.006-1.245,2.588-1.403,4.007c-0.109,0.98-0.195,2.062,0.325,2.77c0.519,0.708,1.892,0.535,2.106-0.438
						c0.23,0.837,1.264,1.043,2.035,0.615c0.771-0.428,1.303-1.29,1.686-2.149c0.934-2.091,1.242-4.445,0.861-6.557
						c0.738,1.917,1.477,3.834,2.215,5.751c0.162,0.421,0.342,0.864,0.698,1.087c-0.44,0.63-0.048,1.523,0.569,1.733
						c0.617,0.21,1.329-0.042,1.99-0.291c1.487-0.56,3.383-1.817,3.068-3.41c0.503,0.134,1.115-0.53,1.01-1.096
						c0.969,1.906,1.937,3.812,2.906,5.718c-0.329-0.488-1.182-0.02-1.367,0.623c-0.185,0.643,0.059,1.269,0.299,1.825
						c-0.693,0.424-1.269,1.124-1.583,1.924c-0.467-1.142-2.374-0.366-2.683,0.951c-0.308,1.317,0.516,2.494,1.513,3.071
						c0.823,0.476,2.061,0.575,2.696-0.35c0.906,0.701,2.549-0.217,2.739-1.53c0.493,0.84,1.767-0.161,2.287-1.133
						c0.954-1.784,1.567-3.758,1.779-5.727c-0.151,0.241,0.03,0.592,0.279,0.541c0.249-0.051,0.393-0.469,0.222-0.644
						c-0.153,2.525-0.305,5.049-0.458,7.574c-0.121,2-0.26,4.072-1.121,5.944c-0.35,0.761-0.763,1.837-0.163,2.211
						c0.162,0.101,0.365,0.111,0.561,0.11c2.257-0.012,4.557-1.178,6.472-2.817c0.643-0.55,1.26-1.166,1.707-1.915
						c0.925-1.549,1.003-3.436,1.671-5.114c0.294-0.739,0.704-1.442,0.893-2.208c0.304-1.236-0.005-2.454-0.313-3.598
						c-1.094-4.062-2.279-8.291-5.04-11.048c-1.687-1.684-3.864-2.707-5.566-4.373c-1.052-1.03-1.902-2.286-2.843-3.441
						c-3.883-4.763-9.272-7.733-14.867-9.862c-3.127-1.19-6.39-2.15-9.823-2.177c-3.769-0.029-7.608,1.067-11.352,2.377
						c-5.59,1.956-11.178,4.46-16.044,8.417c-3.738,3.04-7.08,7.078-8.556,11.829c-1.475,4.751-0.727,10.232,2.546,12.935
						c0.756-0.325,1.511-0.649,2.267-0.974"/>
				</g>
				<g>
					<path style="fill:#AA7D6D;" d="M236.601,221.669c-0.168-0.203-7.397-6.982-11.507,1.815c-4.11,8.798,5.57,11.11,5.703,10.865
						C230.93,234.103,236.601,221.669,236.601,221.669z"/>
				</g>
				<g>
					<path style="fill:#896255;" d="M229.666,229.76c-0.025-0.046-0.204,0.036-0.518,0.033c-0.306-0.003-0.778-0.126-1.156-0.512
						c-0.77-0.775-0.863-2.617-0.165-4.222c0.352-0.811,0.876-1.495,1.454-1.994c0.569-0.518,1.196-0.773,1.702-0.638
						c0.516,0.11,0.716,0.545,0.708,0.842c0.003,0.301-0.135,0.451-0.095,0.488c0.014,0.034,0.258-0.059,0.357-0.456
						c0.045-0.191,0.039-0.447-0.088-0.713c-0.131-0.271-0.401-0.503-0.743-0.62c-0.7-0.27-1.603,0.069-2.238,0.616
						c-0.674,0.533-1.282,1.293-1.677,2.204c-0.772,1.799-0.64,3.882,0.46,4.844c0.543,0.45,1.147,0.505,1.511,0.422
						C229.551,229.965,229.689,229.79,229.666,229.76z"/>
				</g>
				<g>
					<path style="fill:#455A64;" d="M308.838,227.408c-0.058-0.001,0.351-0.48,0.007-1.32c-0.166-0.402-0.512-0.837-1.08-1.095
						c-0.56-0.273-1.28-0.377-2.085-0.453l-0.256-0.024l0.141-0.218c0.426-0.656,0.14-1.707-0.589-2.312
						c-0.747-0.621-1.86-0.783-3.001-0.885l-1.443-0.13l1.422-0.278c0.776-0.151,1.165-1.248,0.852-2.055
						c-0.33-0.844-1.231-1.404-2.17-1.75l-0.123-0.046l-0.807-0.299l0.852-0.126c1.043-0.154,1.517-1.633,0.965-2.445
						c-0.546-0.874-1.719-1.168-2.636-0.961l-1.111,0.251l0.957-0.618c1.23-0.794,1.761-2.263,1.64-3.452
						c-0.108-1.222-0.876-2.117-1.615-2.593c-0.752-0.493-1.483-0.62-1.965-0.647c-0.49-0.021-0.755,0.038-0.76,0.006
						c-0.003-0.011,0.061-0.033,0.188-0.065c0.126-0.035,0.32-0.063,0.573-0.072c0.501-0.014,1.276,0.078,2.094,0.57
						c0.799,0.471,1.672,1.421,1.82,2.765c0.156,1.299-0.381,2.91-1.758,3.827l-0.154-0.367c1.053-0.243,2.393,0.051,3.092,1.128
						c0.347,0.538,0.383,1.243,0.164,1.842c-0.207,0.595-0.724,1.168-1.435,1.265l0.044-0.425l0.13,0.048
						c0.982,0.368,2.006,0.962,2.421,2.01c0.191,0.524,0.166,1.088-0.027,1.581c-0.185,0.49-0.611,0.928-1.147,1.031l-0.021-0.408
						c1.143,0.118,2.341,0.282,3.201,1.014c0.827,0.711,1.161,1.935,0.612,2.766l-0.115-0.242c0.805,0.096,1.564,0.224,2.161,0.543
						c0.607,0.3,0.983,0.813,1.131,1.255c0.162,0.449,0.113,0.838,0.026,1.066C308.943,227.323,308.845,227.414,308.838,227.408z"/>
				</g>
				<g>
					<path style="fill:#455A64;" d="M307.388,202.04c-0.001,0.018-0.22,0.034-0.609-0.062c-0.39-0.089-0.93-0.322-1.571-0.653
						c-0.635-0.313-1.428-0.746-2.363-0.724c-0.464,0.012-0.924,0.189-1.229,0.59c-0.312,0.374-0.446,0.958-0.15,1.348l-0.362,0.062
						c0.161-0.545-0.313-1.166-0.718-1.771c-0.417-0.607-0.875-1.217-1.467-1.678c-0.595-0.477-1.314-0.71-2.015-0.609
						c-0.692,0.079-1.315,0.483-1.508,1.068l-0.17,0.514l-0.214-0.5c-0.447-1.044-1.241-1.828-2.068-2.293
						c-0.822-0.487-1.665-0.684-2.359-0.738c-1.411-0.096-2.189,0.35-2.209,0.272c-0.008-0.017,0.174-0.127,0.543-0.27
						c0.37-0.134,0.944-0.27,1.679-0.253c0.73,0.02,1.628,0.194,2.517,0.688c0.891,0.47,1.771,1.294,2.277,2.436l-0.384,0.014
						c0.247-0.775,1.042-1.275,1.842-1.367c0.809-0.129,1.692,0.162,2.341,0.69c0.657,0.513,1.134,1.161,1.556,1.783
						c0.206,0.315,0.42,0.612,0.593,0.961c0.169,0.337,0.288,0.764,0.161,1.173l-0.124,0.399l-0.238-0.336
						c-0.439-0.62-0.198-1.396,0.183-1.834c0.378-0.487,0.996-0.704,1.516-0.695c1.073,0.009,1.869,0.507,2.493,0.848
						c0.624,0.363,1.125,0.62,1.491,0.747C307.181,201.983,307.392,202.012,307.388,202.04z"/>
				</g>
				<g>
					<path style="fill:#455A64;" d="M291.442,185.101c-0.029,0.049-0.372-0.258-1.104-0.351c-0.36-0.039-0.815-0.026-1.287,0.153
						c-0.471,0.165-0.961,0.506-1.266,1.026l-0.12,0.205l-0.17-0.166c-0.427-0.418-1.273-0.344-1.831,0.121
						c-0.572,0.479-0.863,1.297-1.118,2.142l-0.25,0.831l-0.178-0.865c-0.009-0.043-0.018-0.089-0.028-0.135
						c-0.133-0.55-0.581-0.992-1.088-1.21c-0.511-0.231-1.071-0.233-1.56-0.056c-0.993,0.353-1.624,1.203-1.908,1.952
						c-0.297,0.766-0.346,1.453-0.375,1.918c-0.024,0.469-0.02,0.732-0.053,0.735c-0.027,0.003-0.09-0.256-0.118-0.735
						c-0.022-0.476-0.025-1.189,0.254-2.025c0.271-0.82,0.922-1.791,2.065-2.227c1.108-0.474,2.81,0.078,3.211,1.545
						c0.012,0.06,0.024,0.12,0.036,0.176l-0.428-0.034c0.261-0.846,0.564-1.754,1.273-2.339c0.691-0.557,1.745-0.662,2.355-0.06
						l-0.289,0.039c0.38-0.607,0.958-0.966,1.489-1.124c0.534-0.172,1.033-0.154,1.418-0.079c0.388,0.079,0.667,0.227,0.838,0.343
						C291.378,185.006,291.452,185.088,291.442,185.101z"/>
				</g>
				<g>
					<path style="fill:#455A64;" d="M221.353,199.75c-0.015,0.001-0.042-0.117-0.078-0.346c-0.034-0.229-0.082-0.569-0.084-1.017
						c0.006-0.442,0.04-1.018,0.378-1.599c0.168-0.284,0.41-0.556,0.732-0.763c0.319-0.203,0.745-0.337,1.186-0.25l-0.184,0.174
						c-0.109-0.691,0.175-1.513,0.861-1.996c0.684-0.481,1.725-0.485,2.466,0.107l-0.317,0.192
						c-0.145-0.698,0.276-1.404,0.901-1.731c0.645-0.333,1.417-0.257,2.063,0.02c0.335,0.14,0.613,0.347,0.885,0.42
						c0.266,0.08,0.511-0.012,0.775-0.212c0.261-0.185,0.526-0.474,0.919-0.61c0.372-0.151,0.805-0.167,1.178-0.067
						c0.82,0.203,1.471,0.641,2.133,0.957c0.651,0.326,1.344,0.542,1.943,0.321c0.295-0.108,0.571-0.326,0.905-0.497
						c0.34-0.176,0.728-0.25,1.094-0.234c0.736,0.033,1.418,0.411,1.803,0.986l-0.349,0.134c-0.096-0.819,0.498-1.451,1.086-1.718
						c0.625-0.296,1.298-0.203,1.832-0.025c1.082,0.397,1.828,1.044,2.433,1.559c0.593,0.536,0.997,1.02,1.253,1.361
						c0.255,0.343,0.367,0.542,0.352,0.553c-0.045,0.038-0.551-0.733-1.752-1.743c-0.607-0.479-1.379-1.092-2.382-1.43
						c-0.496-0.152-1.081-0.21-1.584,0.044c-0.498,0.235-0.943,0.771-0.857,1.346l0.123,0.821l-0.473-0.687
						c-0.315-0.458-0.89-0.772-1.501-0.792c-0.305-0.009-0.61,0.051-0.887,0.198c-0.285,0.144-0.567,0.377-0.945,0.523
						c-0.382,0.132-0.799,0.151-1.19,0.072c-0.388-0.084-0.746-0.236-1.093-0.4c-0.686-0.33-1.339-0.752-2.039-0.92
						c-0.322-0.085-0.639-0.065-0.92,0.047c-0.289,0.089-0.522,0.335-0.822,0.553c-0.274,0.227-0.745,0.415-1.148,0.277
						c-0.388-0.116-0.657-0.332-0.939-0.445c-0.563-0.248-1.212-0.299-1.704-0.047c-0.489,0.246-0.81,0.806-0.708,1.284l0.118,0.555
						l-0.435-0.363c-0.58-0.483-1.461-0.499-2.016-0.116c-0.57,0.382-0.834,1.082-0.756,1.658l0.03,0.218l-0.214-0.044
						c-0.711-0.146-1.341,0.355-1.648,0.839c-0.32,0.502-0.386,1.05-0.415,1.475C221.329,199.26,221.395,199.748,221.353,199.75z"/>
				</g>
				<g>
					<path style="fill:#455A64;" d="M210.508,224.152c-0.011,0.011-0.139-0.081-0.325-0.309c-0.182-0.228-0.423-0.601-0.563-1.144
						c-0.139-0.533-0.174-1.257,0.135-1.994c0.299-0.727,0.934-1.46,1.868-1.82l-0.118,0.203c-0.123-0.728-0.296-1.563-0.088-2.46
						c0.104-0.448,0.342-0.884,0.697-1.222c0.348-0.336,0.859-0.587,1.406-0.531l-0.206,0.33c-0.478-0.749-0.424-1.757,0-2.537
						c0.241-0.448,0.591-0.835,1.025-1.096c0.418-0.272,0.981-0.36,1.415-0.327c0.457,0.014,0.715-0.079,0.91-0.456
						c0.2-0.373,0.487-0.76,0.82-1.031c0.673-0.585,1.527-0.749,2.229-0.874c0.717-0.13,1.381-0.259,1.999-0.353
						c1.232-0.199,2.276-0.171,2.959,0.021c0.343,0.086,0.593,0.204,0.757,0.288c0.16,0.093,0.239,0.149,0.232,0.162
						c-0.019,0.04-0.355-0.162-1.026-0.283c-0.668-0.133-1.663-0.115-2.87,0.119c-0.615,0.126-1.277,0.261-1.981,0.405
						c-0.711,0.143-1.458,0.307-2.036,0.824c-0.297,0.255-0.519,0.554-0.722,0.937c-0.109,0.189-0.268,0.426-0.531,0.547
						c-0.255,0.122-0.514,0.124-0.74,0.127c-0.861-0.09-1.635,0.421-2.052,1.198c-0.365,0.674-0.398,1.51-0.022,2.101l0.237,0.372
						l-0.442-0.042c-0.802-0.076-1.493,0.686-1.662,1.421c-0.193,0.774-0.056,1.572,0.055,2.301l0.023,0.152l-0.141,0.051
						c-0.831,0.299-1.428,0.943-1.721,1.594c-0.303,0.656-0.303,1.32-0.202,1.827C210.048,223.69,210.563,224.12,210.508,224.152z"
						/>
				</g>
				<g>
					<path style="fill:#455A64;" d="M227.809,219.781c-0.01,0.013-0.195-0.1-0.487-0.375c-0.29-0.275-0.686-0.724-1.043-1.387
						c-0.355-0.659-0.665-1.546-0.695-2.602c-0.01-0.514,0.024-1.141,0.461-1.651c0.215-0.256,0.582-0.406,0.929-0.385
						c0.339,0.004,0.764,0.203,0.886,0.624l-0.383,0.038c0.042-0.511,0.061-1.121,0.457-1.652c0.201-0.253,0.484-0.451,0.831-0.519
						c0.357-0.083,0.749,0.109,0.969,0.306c0.236,0.187,0.469,0.407,0.638,0.419c0.164,0.024,0.283-0.144,0.408-0.447
						c0.279-0.621,0.834-1.105,1.471-1.354c1.028-0.406,2.274-0.254,3.055,0.517l-0.364,0.112c0.161-0.816,0.597-1.69,1.454-1.985
						c0.435-0.134,0.882-0.041,1.234,0.175c0.352,0.207,0.631,0.629,0.572,1.066l-0.369-0.091c0.474-1.135,1.25-1.998,2.055-2.562
						c0.799-0.583,1.625-0.879,2.309-1.032c0.69-0.148,1.249-0.143,1.622-0.109c0.373,0.044,0.566,0.095,0.564,0.112
						c-0.001,0.069-0.808-0.124-2.132,0.216c-0.651,0.178-1.431,0.49-2.175,1.066c-0.751,0.557-1.462,1.389-1.885,2.45l-0.592,1.482
						l0.223-1.573c0.077-0.542-0.715-1.01-1.298-0.807c-0.623,0.21-1.021,0.934-1.158,1.675l-0.074,0.398l-0.29-0.287
						c-0.632-0.624-1.7-0.767-2.589-0.414c-0.549,0.217-1.003,0.616-1.236,1.127c-0.064,0.135-0.126,0.296-0.258,0.452
						c-0.132,0.16-0.363,0.269-0.587,0.244c-0.445-0.079-0.634-0.356-0.862-0.514c-0.223-0.184-0.408-0.268-0.632-0.227
						c-0.22,0.04-0.437,0.179-0.582,0.362c-0.295,0.375-0.348,0.916-0.389,1.425l-0.094,1.138l-0.29-1.101
						c-0.114-0.435-0.896-0.467-1.172-0.1c-0.336,0.366-0.406,0.919-0.403,1.403c0.002,0.995,0.266,1.852,0.579,2.501
						C227.129,219.223,227.862,219.735,227.809,219.781z"/>
				</g>
				<g>
					<path style="fill:#455A64;" d="M259.3,204.857c-0.04,0.03-0.439-0.318-0.947-1.029c-0.244-0.36-0.514-0.828-0.622-1.431
						c-0.095-0.589-0.03-1.317,0.436-1.903c0.103-0.133,0.233-0.242,0.359-0.336l-0.047,0.313c-0.412-0.546-0.491-1.227-0.348-1.773
						c0.14-0.559,0.517-0.955,0.868-1.163c0.735-0.425,1.277-0.242,1.253-0.205c0.007,0.071-0.501,0.021-1.087,0.451
						c-0.284,0.213-0.561,0.554-0.652,1.008c-0.096,0.446-0.011,0.997,0.312,1.414l0.133,0.172l-0.18,0.141
						c-0.093,0.073-0.191,0.153-0.27,0.256c-0.359,0.443-0.441,1.056-0.377,1.565c0.07,0.515,0.286,0.967,0.485,1.327
						C259.035,204.384,259.357,204.815,259.3,204.857z"/>
				</g>
				<g>
					<path style="fill:#455A64;" d="M270.541,204.997c-0.055-0.05,0.66-0.295,0.97-1.313c0.139-0.486,0.115-1.164-0.338-1.685
						c-0.43-0.515-1.263-0.857-2.031-0.61l-0.359,0.115l0.095-0.367c0.113-0.436,0.172-0.913,0.108-1.382
						c-0.058-0.458-0.277-0.937-0.65-1.179c-0.59-0.389-1.58-0.141-1.657,0.465l-0.41-0.103c0.302-0.87,0.19-1.793-0.141-2.49
						c-0.33-0.708-0.879-1.182-1.385-1.461c-1.042-0.554-1.81-0.42-1.8-0.495c-0.003-0.021,0.175-0.073,0.514-0.075
						c0.335,0.001,0.841,0.061,1.41,0.331c0.56,0.265,1.195,0.761,1.589,1.539c0.393,0.764,0.546,1.79,0.215,2.79l-0.41-0.104
						c0.067-0.481,0.497-0.855,0.942-0.96c0.447-0.121,0.946-0.067,1.369,0.192c0.542,0.36,0.773,0.95,0.845,1.493
						c0.07,0.549-0.005,1.074-0.136,1.549l-0.264-0.252c0.981-0.288,1.936,0.155,2.43,0.782c0.523,0.65,0.504,1.459,0.311,1.985
						c-0.193,0.547-0.535,0.881-0.785,1.051C270.714,204.983,270.547,205.013,270.541,204.997z"/>
				</g>
				<g>
					<path style="fill:#FF725E;" d="M296.626,228.682c3.24-6.987,2.683-15.436-0.767-22.321c-3.449-6.886-9.58-12.236-16.564-15.481
						c-6.984-3.245-14.784-4.486-22.485-4.415c-5.077,0.047-10.303,0.698-14.722,3.197c-4.437,2.51-7.681,6.658-10.634,10.814
						c-2.005,2.822-3.959,5.749-5.02,9.045c-1.061,3.296-1.141,7.049,0.512,10.091c-2.347-0.392-3.49-3.074-3.925-5.413
						c-1.674-8.998,3.318-17.71,9.565-24.4c5.047-5.406,11.857-8.058,16.829-9.195c7.21-1.649,15.105-0.156,22.073,2.324
						c7.755,2.76,15.129,5.761,20.273,12.186C296.906,201.538,304.177,215.426,296.626,228.682"/>
				</g>
				<g>
					<g>
						<path style="fill:#455A64;" d="M288.391,230.977c-0.016,0.014,0.07,0.156,0.282,0.365c0.212,0.207,0.559,0.479,1.056,0.689
							c0.973,0.458,2.615,0.478,4.051-0.341c1.454-0.797,2.326-2.063,2.83-2.97c0.502-0.927,0.695-1.549,0.658-1.565
							c-0.051-0.023-0.324,0.563-0.87,1.439c-0.548,0.859-1.419,2.043-2.785,2.789c-1.357,0.769-2.854,0.787-3.793,0.418
							C288.86,231.453,288.432,230.928,288.391,230.977z"/>
					</g>
				</g>
				<g>
					<g>
						<path style="fill:#455A64;" d="M276.816,192.311c0.013,0.024,0.257-0.121,0.751-0.268c0.489-0.139,1.255-0.269,2.179-0.066
							c0.906,0.196,1.994,0.764,2.631,1.886c0.636,1.089,0.815,2.692,0.087,4.051l-0.161,0.3l0.335-0.062
							c0.89-0.164,1.893,0.048,2.706,0.611c0.823,0.549,1.403,1.487,1.487,2.531c0.097,1.034-0.255,2.079-0.914,2.796l-0.257,0.28
							l0.379,0.009c1.065,0.026,2.002,0.894,2.143,1.855c0.152,0.972-0.397,1.944-1.164,2.343l-0.455,0.237l0.512,0.038
							c1.101,0.081,2.013,0.689,2.581,1.379c0.596,0.684,0.874,1.455,0.994,2.086c0.218,1.301-0.219,2.014-0.151,2.022
							c0.01,0.005,0.1-0.163,0.216-0.502c0.1-0.342,0.194-0.875,0.1-1.547c-0.1-0.662-0.367-1.477-0.978-2.211
							c-0.581-0.738-1.54-1.413-2.744-1.519l0.057,0.275c0.884-0.452,1.51-1.523,1.35-2.652c-0.165-1.123-1.206-2.106-2.456-2.149
							l0.122,0.289c0.733-0.793,1.115-1.931,1.01-3.062c-0.089-1.143-0.741-2.192-1.642-2.783c-0.89-0.609-1.981-0.837-2.962-0.648
							l0.174,0.238c0.78-1.49,0.559-3.192-0.136-4.345c-0.703-1.192-1.879-1.768-2.828-1.943c-0.971-0.183-1.76-0.014-2.251,0.161
							C277.038,192.125,276.816,192.311,276.816,192.311z"/>
					</g>
				</g>
			</g>
			<g>
				<path style="fill:#896255;" d="M258.788,235.298c0.083,0.103-1.218,1.052-3.136,1.292c-1.917,0.257-3.416-0.329-3.362-0.451
					c0.037-0.152,1.503,0.178,3.295-0.066C257.379,235.853,258.714,235.16,258.788,235.298z"/>
			</g>
			<g>
				<path style="fill:#896255;" d="M273.98,246.33c-0.104,0.087-1.033-0.95-1.625-2.535c-0.603-1.582-0.59-2.973-0.455-2.977
					c0.152-0.015,0.368,1.29,0.942,2.793C273.404,245.119,274.104,246.242,273.98,246.33z"/>
			</g>
			<path style="fill:#F5F5F5;" d="M247.483,233.305c-0.359,0.174-0.716,0.373-0.985,0.668c-0.269,0.295-0.359,0.695-0.371,1.094
				c-0.016,0.525,0.321,0.922,0.771,1.195c0.817,0.495,1.635-0.105,2.391-0.86c0.755-0.755,1.336-2.102,1.459-3.105
				C249.617,232.464,248.512,232.805,247.483,233.305z"/>
			<path style="fill:#F5F5F5;" d="M278.786,246.581c-0.067,0.275-0.12,0.56-0.081,0.84c0.039,0.28,0.218,0.51,0.43,0.698
				c0.279,0.246,0.649,0.242,1.001,0.119c0.64-0.222,0.682-0.941,0.611-1.695s-0.544-1.681-1.036-2.202
				C279.292,245.035,278.978,245.793,278.786,246.581z"/>
			<path style="fill:#F5F5F5;" d="M250.284,230.11c-0.709,0.047-1.418,0.095-2.128,0.142c-0.267,0.018-0.574,0.057-0.721,0.282
				c-0.155,0.237-0.032,0.58,0.204,0.737c0.236,0.156,0.543,0.161,0.82,0.104c0.704-0.145,1.28-0.633,1.823-1.104"/>
			<g>
				<path style="fill:#896255;" d="M256.107,237.423c0.049,0.126-1.107,0.632-2.636,0.636c-1.53,0.014-2.691-0.479-2.644-0.606
					c0.042-0.146,1.202,0.1,2.641,0.085C254.906,237.536,256.063,237.277,256.107,237.423z"/>
			</g>
			<g>
				<path style="fill:#896255;" d="M273.377,248.303c-0.117,0.076-0.859-0.871-1.442-2.224c-0.588-1.351-0.772-2.54-0.636-2.573
					c0.143-0.038,0.544,1.058,1.114,2.366C272.977,247.183,273.503,248.224,273.377,248.303z"/>
			</g>
			<g>
				<path style="fill:#896255;" d="M247.822,248.62c-0.134,0.034-0.386-0.813-0.053-1.804c0.326-0.994,1.034-1.521,1.121-1.414
					c0.108,0.105-0.349,0.715-0.627,1.578C247.97,247.838,247.971,248.601,247.822,248.62z"/>
			</g>
		</g>
		<g>
			<g>
				<path style="fill:#AA7D6D;" d="M261.868,287.748c0,0,34.564,17.526,35.224,16.358c0.66-1.168-1.341-23.424-2.222-28.708
					c-0.881-5.284-5.652-25.473-5.652-25.473l11.673-5.327c0,0,11.611,31.482,17.115,50.415c5.504,18.933,4.129,37.186,2.285,39.177
					c-1.844,1.991-67.009-23.326-67.009-23.326L261.868,287.748z"/>
				<g>
					<path style="fill:#896255;" d="M300.969,317.306c-0.019,0.04-0.81-0.331-1.736-1.363c-0.937-1.014-1.834-2.778-2.204-4.84
						c-0.401-2.059-0.324-3.959-0.215-5.307c0.128-1.352,0.31-2.171,0.374-2.163c0.079,0.009,0.026,0.843-0.006,2.184
						c-0.014,1.337-0.029,3.199,0.359,5.188c0.36,1.994,1.155,3.675,1.977,4.704C300.327,316.751,301.027,317.227,300.969,317.306z"
						/>
				</g>
			</g>
			<g>
				<g>
					<path style="fill:#AA7D6D;" d="M301.085,246.189l1.886-19.762l-8.602-24.093c0,0-1.979,0.203-1.535,3.772l-3.661-2.7
						c0,0-1.017,2.45-0.37,3.883c0.647,1.433,4.003,5.28,4.003,5.28l-5.714-1.721c0,0-1.387,2.219,1.627,3.486l3.975,3.514
						l1.566,7.748c0,0-4.02,11.806-5.167,15.615c-1.147,3.809,0.127,8.715,0.127,8.715L301.085,246.189z"/>
					<g>
						<path style="fill:#896255;" d="M298.148,223.714c-0.074,0.01-0.219-0.752-0.438-1.975c-0.228-1.218-0.527-2.912-1.238-4.638
							c-0.712-1.722-1.793-3.063-2.74-3.822c-0.943-0.774-1.682-1.033-1.648-1.117c0.009-0.051,0.815,0.086,1.871,0.825
							c1.055,0.721,2.253,2.11,2.997,3.915c0.741,1.802,0.985,3.546,1.121,4.786C298.202,222.932,298.217,223.705,298.148,223.714z"
							/>
					</g>
					<g>
						<path style="fill:#896255;" d="M297.813,213.095c-0.127,0.077-1.309-1.675-2.844-3.772c-1.531-2.102-2.839-3.76-2.727-3.858
							c0.103-0.093,1.601,1.428,3.148,3.551C296.94,211.135,297.933,213.025,297.813,213.095z"/>
					</g>
				</g>
			</g>
		</g>
		<g>
			<g>
				<path style="fill:#263238;" d="M261.617,309.385c0,0,14.95-9.034,22.468-6.423c7.518,2.611,98.988,115.369,98.988,115.369
					l-17.786,16.991l-80.901-68.099l-20.751-21.364L261.617,309.385z"/>
				<path style="fill:#263238;" d="M118.419,414.603c0,0,4.042,15.96,12.493,27.281c6.216,8.326,15.561,15.592,29.277,15.736
					c32.366,0.341,51.105-26.575,58.259-35.433c7.155-8.858,45.654-59.281,48.379-59.622c2.726-0.341,4.429,9.199,16.354,23.508
					c11.924,14.309,72.863,57.864,72.863,57.864l20.101-18.738l-68.63-79.481c0,0-29.785-34.122-40.346-36.064
					c-10.562-1.941-23.304,8.407-29.752,14.258C230.968,329.763,118.419,414.603,118.419,414.603z"/>
				<g>
					<path style="fill:#455A64;" d="M370.241,430.703c0,0-0.201-0.187-0.573-0.571c-0.381-0.397-0.929-0.967-1.644-1.712
						c-1.447-1.524-3.563-3.753-6.285-6.619c-5.451-5.775-13.321-14.111-23.043-24.41c-4.859-5.159-10.181-10.809-15.894-16.873
						c-5.818-5.954-12.194-12.177-18.87-18.746c-6.695-6.552-13.751-13.403-21.179-20.383c-3.719-3.483-7.525-7.009-11.504-10.445
						c-0.996-0.856-2.007-1.704-3.042-2.523c-0.521-0.404-1.038-0.817-1.581-1.187c-0.267-0.194-0.536-0.383-0.816-0.539
						l-0.416-0.249c-0.137-0.065-0.271-0.102-0.404-0.158c-1.214-0.245-2.57,0.06-3.832,0.391c-1.277,0.357-2.536,0.815-3.77,1.347
						c-2.441,1.048-4.801,2.276-6.915,3.525l0.042-0.031c-15.238,14.078-29.689,27.43-42.796,39.539
						c-6.553,6.053-12.77,11.796-18.582,17.164c-5.659,5.516-11.054,10.571-16.499,14.528c-5.428,3.964-10.891,6.814-15.997,8.375
						c-5.096,1.586-9.733,2.053-13.469,1.859c-3.748-0.18-6.589-0.934-8.435-1.59c-0.938-0.297-1.613-0.628-2.076-0.826
						c-0.46-0.203-0.69-0.319-0.69-0.319s0.244,0.084,0.71,0.271c0.468,0.182,1.147,0.496,2.088,0.777
						c1.851,0.622,4.684,1.34,8.411,1.489c3.716,0.163,8.32-0.331,13.376-1.932c5.065-1.578,10.478-4.43,15.87-8.395
						c5.408-3.96,10.768-9.01,16.419-14.544c5.801-5.38,12.008-11.135,18.55-17.201c13.098-12.121,27.539-25.486,42.766-39.577
						l0.02-0.019l0.022-0.013c2.143-1.266,4.508-2.497,6.981-3.559c1.248-0.538,2.527-1.004,3.837-1.37
						c1.31-0.335,2.667-0.671,4.083-0.396c0.176,0.065,0.365,0.125,0.527,0.203l0.443,0.264c0.302,0.169,0.578,0.363,0.849,0.56
						c0.557,0.38,1.078,0.796,1.604,1.205c1.044,0.827,2.058,1.678,3.058,2.538c3.99,3.448,7.797,6.977,11.516,10.466
						c7.428,6.989,14.478,13.849,21.166,20.412c6.67,6.583,13.029,12.811,18.845,18.789c5.697,6.081,11.003,11.746,15.849,16.919
						c9.672,10.348,17.501,18.724,22.924,24.525c2.691,2.896,4.783,5.147,6.214,6.686c0.699,0.76,1.234,1.343,1.607,1.748
						C370.067,430.491,370.241,430.703,370.241,430.703z"/>
				</g>
				<g>
					<path style="fill:#455A64;" d="M171.243,456.644c-0.016-0.004,0.016-0.192,0.092-0.549c0.092-0.406,0.21-0.923,0.356-1.563
						c0.346-1.419,0.824-3.381,1.417-5.812l0.054,0.172c-2.937-2.51-6.795-5.806-11.177-9.551l0.22,0.053
						c-3.008,0.718-6.396,0.741-9.818,0.319c-4.405-0.53-8.475-1.73-12.1-2.977c-3.626-1.269-6.801-2.664-9.415-3.992l0.273-0.166
						c-0.035,3.039-0.063,5.521-0.084,7.311c-0.021,0.819-0.037,1.479-0.05,1.988c-0.017,0.454-0.035,0.693-0.054,0.693
						s-0.036-0.239-0.054-0.693c-0.013-0.509-0.029-1.168-0.05-1.988c-0.021-1.79-0.049-4.271-0.084-7.311l-0.003-0.302l0.277,0.135
						c2.608,1.274,5.791,2.633,9.401,3.869c3.611,1.216,7.655,2.393,12.005,2.915c3.379,0.418,6.706,0.4,9.639-0.285l0.126-0.029
						l0.095,0.083c4.343,3.79,8.166,7.128,11.076,9.668l0.081,0.071l-0.027,0.101c-0.656,2.415-1.186,4.364-1.568,5.773
						c-0.182,0.631-0.328,1.14-0.443,1.541C171.322,456.468,171.259,456.648,171.243,456.644z"/>
				</g>
			</g>
			<g>
				<path style="fill:#455A64;" d="M376.145,425.199c-0.109,0.094-13.837-15.626-30.659-35.108
					c-16.828-19.488-30.376-35.358-30.268-35.452c0.109-0.094,13.834,15.623,30.662,35.111
					C362.702,409.233,376.254,425.105,376.145,425.199z"/>
			</g>
		</g>
		<g>
			<polygon style="fill:#FF725E;" points="251.814,279.695 248.412,277.612 231.519,290.635 256.297,304.107 273.444,292.951 			"/>
			<path style="fill:#FF725E;" d="M215.315,262.531c0,0-19.705-2.355-35.785,17.164c-11.261,13.669-22.451,44.908-33.695,60.931
				c-4.755,6.776-30.444,33.887-29.888,65.753l1.358,8.353l24.757-9.297c5.653-2.564,10.898-5.946,15.567-10.036l29.203-25.585
				l51.961-47.15c1.36,0.743,15.437-19.084,12.913-32.481c-1.212-6.431-2.643-12.227-2.858-12.172
				C240.804,280.057,232.21,275.395,215.315,262.531z"/>
			<g style="opacity:0.3;">
				<path d="M202.79,304.003l-4.973-0.466c4.471,7.108,9.107,14.396,15.907,19.324c2.653,1.923,5.666,3.518,7.575,6.181
					c1.337,1.865,2.584,4.486,4.876,4.378c0.947-0.044,2.351-1.354,3.021-2.024c3.483-3.483,9.312-8.575,9.312-8.575
					C227.128,315.321,215.331,309.336,202.79,304.003z"/>
			</g>
			<g>
				<path style="fill:#263238;" d="M167.953,387.126c0.011,0.014-0.113,0.122-0.359,0.315c-0.298,0.225-0.658,0.496-1.092,0.823
					c-0.474,0.359-1.063,0.783-1.777,1.234c-0.71,0.455-1.501,1.005-2.431,1.52c-1.822,1.096-4.079,2.252-6.653,3.385
					c-2.589,1.098-5.503,2.15-8.638,2.997c-3.143,0.821-6.196,1.353-8.989,1.684c-2.797,0.294-5.331,0.41-7.456,0.362
					c-1.063,0.014-2.022-0.07-2.865-0.113c-0.843-0.037-1.566-0.113-2.155-0.189c-0.538-0.069-0.985-0.126-1.356-0.173
					c-0.309-0.045-0.47-0.078-0.468-0.095c0.002-0.018,0.167-0.02,0.479-0.009c0.372,0.021,0.821,0.045,1.362,0.075
					c0.59,0.045,1.312,0.091,2.152,0.1c0.84,0.015,1.794,0.074,2.851,0.036c2.113,0,4.626-0.153,7.399-0.471
					c2.768-0.355,5.793-0.897,8.911-1.711c3.11-0.84,6.004-1.87,8.583-2.935c2.565-1.1,4.823-2.214,6.657-3.262
					c0.936-0.491,1.736-1.016,2.458-1.446c0.725-0.425,1.329-0.823,1.819-1.155c0.455-0.294,0.832-0.539,1.145-0.741
					C167.798,387.191,167.942,387.112,167.953,387.126z"/>
			</g>
			<g style="opacity:0.3;">
				<path d="M143.759,392.52c-4.659,0.117-10.034,0.036-13.041,3.596c-0.505,0.599-0.921,1.465-0.515,2.134
					c0.374,0.617,1.221,0.702,1.943,0.706c12.24,0.071,24.476-3.637,34.617-10.49l0.694-1.002
					C159.961,390.592,151.88,392.316,143.759,392.52z"/>
			</g>
			<g>
				<path style="fill:#263238;" d="M252.481,296.959c-0.08,0.002-0.149-1.024-0.334-2.67c-0.182-1.646-0.517-3.908-1.011-6.387
					c-0.496-2.48-1.014-4.715-1.358-6.341c-0.347-1.626-0.526-2.641-0.456-2.657c0.07-0.017,0.375,0.967,0.814,2.57
					c0.436,1.604,1.012,3.831,1.511,6.327c0.497,2.495,0.778,4.79,0.867,6.457C252.606,295.925,252.545,296.958,252.481,296.959z"/>
			</g>
		</g>
		<g>
			<path style="fill:#FF725E;" d="M217.762,269.079c0,0-19.338,1.119-23.653,13.744c-1.742,5.097-2.701,11.091,0.544,16.625
				c2.732,4.659,15.006,15.162,15.006,15.162l37.031-22.155C246.689,292.454,225.433,269.878,217.762,269.079z"/>
			<g>
				<path style="fill:#263238;" d="M195.961,301.729c0.007-0.007,0.096,0.063,0.263,0.207c0.189,0.167,0.43,0.381,0.731,0.649
					c0.663,0.606,1.591,1.454,2.769,2.531c2.414,2.242,5.851,5.433,10.069,9.349l-0.239-0.024
					c7.922-4.773,18.362-11.064,29.776-17.941c1.346-0.816,2.678-1.624,3.989-2.42c0.654-0.4,1.303-0.797,1.946-1.191l0.955-0.593
					l0.47-0.297l0.23-0.15l0.11-0.074l0.05-0.035l0.016-0.012c-0.004,0.004,0.017-0.015-0.008,0.008l-0.021,0.027l-0.015,0.027
					c-0.013,0.026-0.063,0.125,0.016,0.255c0.089,0.117,0.179,0.108,0.207,0.112l-0.177-0.075c-4.389-4.53-8.514-8.787-12.237-12.63
					c-1.873-1.903-3.583-3.781-5.267-5.385c-1.72-1.583-3.531-2.805-5.241-3.787c-3.443-1.948-6.507-2.899-8.614-3.441
					c-1.057-0.274-1.886-0.446-2.447-0.551c-0.258-0.052-0.467-0.094-0.638-0.129c-0.143-0.032-0.216-0.052-0.215-0.06
					c0.001-0.008,0.076-0.004,0.222,0.013c0.173,0.022,0.385,0.05,0.647,0.083c0.569,0.076,1.406,0.219,2.475,0.467
					c2.131,0.49,5.233,1.397,8.736,3.325c1.74,0.973,3.585,2.192,5.344,3.784c1.737,1.628,3.443,3.479,5.328,5.373
					c3.733,3.826,7.87,8.065,12.271,12.575l-0.176-0.075c0.029,0.005,0.119-0.003,0.209,0.116c0.079,0.131,0.03,0.231,0.018,0.259
					l-0.02,0.033l-0.033,0.04l-0.034,0.031l-0.038,0.03l-0.063,0.045l-0.12,0.081l-0.236,0.154l-0.474,0.301l-0.958,0.596
					c-0.643,0.395-1.293,0.793-1.947,1.194c-1.312,0.796-2.644,1.605-3.99,2.422c-5.718,3.431-11.191,6.716-16.227,9.739
					c-2.521,1.502-4.932,2.938-7.209,4.294c-1.139,0.676-2.244,1.332-3.312,1.967c-0.534,0.317-1.059,0.628-1.575,0.934
					c-0.258,0.153-0.513,0.304-0.766,0.454l-0.378,0.224l-0.187,0.111l-0.093,0.055l-0.047,0.028l-0.023,0.014l-0.011,0.007
					l-0.005,0.003c-0.018-0.025,0.033,0.061-0.041-0.056l-0.203,0.035c-4.168-3.97-7.564-7.204-9.95-9.476
					c-1.147-1.11-2.051-1.984-2.696-2.608c-0.286-0.285-0.514-0.512-0.693-0.69C196.03,301.821,195.955,301.736,195.961,301.729z"/>
			</g>
			<g>
				<path style="fill:#263238;" d="M189.71,295.484c-0.028,0.015-0.241-0.309-0.561-0.932c-0.321-0.622-0.726-1.557-1.099-2.757
					c-0.755-2.382-1.257-5.934-0.506-9.729c0.75-3.796,2.566-6.891,4.17-8.806c0.801-0.968,1.531-1.678,2.065-2.131
					c0.533-0.454,0.853-0.673,0.874-0.649c0.067,0.073-1.145,1.046-2.65,3.008c-1.504,1.941-3.218,4.983-3.948,8.678
					c-0.73,3.694-0.303,7.159,0.349,9.526C189.049,294.081,189.799,295.442,189.71,295.484z"/>
			</g>
		</g>
		<g>
			<path style="fill:#896255;" d="M326.871,329.628c-0.038,0.076-0.468-0.101-1.19-0.188c-0.721-0.097-1.735-0.06-2.842,0.144
				c-2.214,0.423-3.958,1.106-4.017,0.95c-0.05-0.108,1.616-1.019,3.925-1.462c1.151-0.213,2.245-0.194,3.002,0.007
				C326.51,329.27,326.901,329.579,326.871,329.628z"/>
		</g>
		<g>
			<path style="fill:#AA7D6D;" d="M212.441,312.984c0.479,0.479,70.367,36.962,87.467,42.077c17.1,5.114,27.968-9.749,27.968-9.749
				l-4.954-13.585c0,0-4.241-1.531-13.317-4.23c-9.037-2.688-14.277-0.993-14.277-0.993l-49.641-33.432L212.441,312.984z"/>
			<g>
				<path style="fill:#896255;" d="M309.003,347.004c0.057,0.022-0.071,0.571-0.507,1.366c-0.431,0.793-1.215,1.804-2.323,2.645
					c-1.111,0.838-2.297,1.317-3.177,1.517c-0.883,0.204-1.447,0.177-1.452,0.117c-0.037-0.159,2.202-0.42,4.315-2.049
					C308.001,349.009,308.86,346.925,309.003,347.004z"/>
			</g>
			<path style="fill:#AA7D6D;" d="M319.811,330.071c0,0,6.06-2.061,7.54,0c1.479,2.061,5.235,9.344,5.462,11.733
				c0.228,2.39-2.048,2.617-3.072,4.552c-1.024,1.934-2.169,5.874-2.169,5.874l-4.548-5.512l-1.932-5.662L319.811,330.071z"/>
			<g>
				<path style="fill:#896255;" d="M245.688,293.073c0.01-0.015,0.233,0.115,0.65,0.375c0.456,0.292,1.056,0.677,1.806,1.159
					c1.604,1.057,3.843,2.532,6.589,4.342c5.577,3.735,13.202,8.843,21.627,14.486c4.21,2.847,8.219,5.557,11.873,8.028
					c1.82,1.237,3.55,2.413,5.173,3.516c0.801,0.564,1.6,1.068,2.358,1.583c0.756,0.518,1.448,1.062,2.086,1.605
					c2.56,2.178,4.194,4.385,5.195,5.957c0.497,0.792,0.846,1.429,1.067,1.868c0.217,0.442,0.322,0.677,0.306,0.685
					c-0.016,0.008-0.153-0.211-0.398-0.634c-0.25-0.421-0.624-1.038-1.144-1.807c-1.046-1.526-2.707-3.674-5.263-5.786
					c-0.638-0.527-1.327-1.054-2.077-1.555c-0.751-0.498-1.558-0.995-2.365-1.551c-1.631-1.091-3.371-2.253-5.2-3.476
					c-3.662-2.461-7.679-5.16-11.898-7.995c-8.393-5.694-15.991-10.847-21.546-14.616c-2.708-1.867-4.916-3.389-6.497-4.479
					c-0.728-0.515-1.31-0.927-1.752-1.24C245.882,293.246,245.678,293.088,245.688,293.073z"/>
			</g>
			<g>
				<path style="fill:#896255;" d="M323.054,331.377c-0.005,0.033-0.411,0.005-1.137-0.105c-0.726-0.109-1.769-0.32-3.04-0.646
					c-2.552-0.627-5.96-1.867-9.767-3.004c-3.808-1.135-7.392-1.646-9.985-1.526c-2.597,0.087-4.148,0.617-4.173,0.517
					c-0.009-0.029,0.367-0.186,1.076-0.385c0.708-0.202,1.761-0.405,3.078-0.5c2.637-0.219,6.307,0.247,10.149,1.393
					c3.84,1.147,7.211,2.436,9.719,3.149c1.25,0.369,2.272,0.633,2.981,0.802C322.666,331.243,323.06,331.339,323.054,331.377z"/>
			</g>
			<g>
				<path style="fill:#896255;" d="M328.791,343.866c0.061,0.021-0.009,0.448-0.31,1.069c-0.295,0.623-0.848,1.41-1.573,2.156
					c-1.466,1.482-2.869,2.387-2.947,2.293c-0.107-0.125,1.155-1.221,2.572-2.655C327.981,345.31,328.664,343.824,328.791,343.866z"
					/>
			</g>
		</g>
	</g>
</g>
<g id="Floor">
	<g>
		<path style="fill:#263238;" d="M464.046,459.315c0,0.144-95.839,0.26-214.036,0.26c-118.238,0-214.056-0.117-214.056-0.26
			c0-0.144,95.819-0.26,214.056-0.26C368.207,459.055,464.046,459.172,464.046,459.315z"/>
	</g>
</g>
</svg>
